<?xml version="1.0" encoding="iso-8859-1"?>
<!-- Generator: Adobe Illustrator 19.0.0, SVG Export Plug-In . SVG Version: 6.00 Build 0)  -->
<svg version="1.1" id="Layer_1" xmlns="http://www.w3.org/2000/svg" xmlns:xlink="http://www.w3.org/1999/xlink" x="0px" y="0px"
	 viewBox="0 0 512 512" style="enable-background:new 0 0 512 512;" xml:space="preserve">
<path style="fill:#364C5C;" d="M314.241,235.081H197.759c-9.985,0-17.752-8.724-16.58-18.65l9.682-82.154
	c1.615-13.716,18.318-19.656,28.226-10.008c9.936,9.671,23.046,14.999,36.913,14.999c13.867,0,26.977-5.327,36.913-14.999
	c9.897-9.634,26.61-3.72,28.226,10.008l9.682,82.154C331.992,226.347,324.236,235.081,314.241,235.081z"/>
<path style="fill:#2C3E4E;" d="M330.822,216.431l-9.682-82.154c-1.617-13.728-18.33-19.643-28.226-10.008
	c-9.936,9.671-23.046,14.999-36.913,14.999v95.813h58.241C324.236,235.081,331.992,226.347,330.822,216.431z"/>
<path style="fill:#364C5C;" d="M330.952,376.878H181.048c-9.985,0-17.75-8.723-16.581-18.649l10.784-91.56
	c0.992-8.407,8.116-14.742,16.581-14.742h128.335c8.465,0,15.59,6.335,16.581,14.742l10.784,91.56
	C348.701,368.144,340.946,376.878,330.952,376.878z"/>
<path style="fill:#2C3E4E;" d="M347.533,358.229l-10.784-91.56c-0.992-8.407-8.116-14.742-16.581-14.742H256v124.951h74.952
	C340.946,376.878,348.701,368.144,347.533,358.229z"/>
<path style="fill:#40596B;" d="M256,172.66c-47.448,0-86.331-38.361-86.331-86.33C169.67,38.727,208.396,0,256,0
	s86.331,38.727,86.331,86.331C342.331,134.355,303.398,172.66,256,172.66z"/>
<path style="fill:#364C5C;" d="M256,0v172.66c47.398,0,86.331-38.304,86.331-86.33C342.331,38.727,303.604,0,256,0z"/>
<path style="fill:#40596B;" d="M342.082,285.318H169.918c-9.22,0-16.696-7.475-16.696-16.696v-50.236
	c0-9.22,7.475-16.696,16.696-16.696h172.163c9.22,0,16.696,7.475,16.696,16.696v50.236
	C358.777,277.842,351.302,285.318,342.082,285.318z"/>
<path style="fill:#364C5C;" d="M342.082,201.69H256v83.627h86.082c9.22,0,16.696-7.475,16.696-16.696v-50.236
	C358.777,209.165,351.302,201.69,342.082,201.69z"/>
<path style="fill:#40596B;" d="M366.693,427.113H145.307c-9.22,0-16.696-7.475-16.696-16.696v-50.236
	c0-9.22,7.475-16.696,16.696-16.696h221.387c9.22,0,16.696,7.475,16.696,16.696v50.236
	C383.389,419.639,375.914,427.113,366.693,427.113z"/>
<g>
	<path style="fill:#364C5C;" d="M366.693,343.486H256v83.627h110.693c9.22,0,16.696-7.475,16.696-16.696v-50.236
		C383.389,350.96,375.914,343.486,366.693,343.486z"/>
	<path style="fill:#364C5C;" d="M397.175,512h-282.35c-9.22,0-16.696-7.475-16.696-16.696v-84.887
		c0-9.22,7.475-16.696,16.696-16.696h282.35c9.22,0,16.696,7.475,16.696,16.696v84.887C413.871,504.525,406.396,512,397.175,512z"/>
</g>
<path style="fill:#2C3E4E;" d="M397.175,393.721H256V512h141.175c9.22,0,16.696-7.475,16.696-16.696v-84.887
	C413.871,401.197,406.396,393.721,397.175,393.721z"/>
<g>
</g>
<g>
</g>
<g>
</g>
<g>
</g>
<g>
</g>
<g>
</g>
<g>
</g>
<g>
</g>
<g>
</g>
<g>
</g>
<g>
</g>
<g>
</g>
<g>
</g>
<g>
</g>
<g>
</g>
</svg>
